<svg width="23" height="23" viewBox="0 0 23 23" fill="none" xmlns="http://www.w3.org/2000/svg">
<g clip-path="url(#clip0_162_2393)">
<path d="M11.7601 22.5923C17.7559 22.5923 22.6164 17.7318 22.6164 11.7361C22.6164 5.74029 17.7559 0.879761 11.7601 0.879761C5.76434 0.879761 0.903809 5.74029 0.903809 11.7361C0.903809 17.7318 5.76434 22.5923 11.7601 22.5923Z" fill="#F0F0F0"/>
<path d="M11.7601 0.879517C7.09232 0.879517 3.11302 3.82564 1.5791 7.95973H21.9412C20.4073 3.82564 16.428 0.879517 11.7601 0.879517Z" fill="#D80027"/>
<path d="M11.7601 22.5927C16.428 22.5927 20.4073 19.6465 21.9412 15.5125H1.5791C3.11302 19.6465 7.09232 22.5927 11.7601 22.5927Z" fill="black"/>
<path d="M15.5361 10.556H12.704C12.704 10.0346 12.2814 9.61194 11.76 9.61194C11.2387 9.61194 10.816 10.0346 10.816 10.556H7.98389C7.98389 11.0774 8.43803 11.5 8.95938 11.5H8.92792C8.92792 12.0214 9.35055 12.444 9.87195 12.444C9.87195 12.9654 10.2946 13.3881 10.816 13.3881H12.704C13.2254 13.3881 13.6481 12.9654 13.6481 12.444C14.1695 12.444 14.5921 12.0214 14.5921 11.5H14.5607C15.082 11.5 15.5361 11.0774 15.5361 10.556Z" fill="#FF9811"/>
</g>
<defs>
<clipPath id="clip0_162_2393">
<rect width="21.7126" height="21.7126" fill="white" transform="translate(0.903809 0.879761)"/>
</clipPath>
</defs>
</svg>
