<svg width="27" height="27" viewBox="0 0 27 27" fill="none" xmlns="http://www.w3.org/2000/svg">
<g clip-path="url(#clip0_162_2391)">
<path d="M13.5 27C20.9558 27 27 20.9558 27 13.5C27 6.04416 20.9558 0 13.5 0C6.04416 0 0 6.04416 0 13.5C0 20.9558 6.04416 27 13.5 27Z" fill="#F0F0F0"/>
<path d="M3.08594 4.9085H23.9143C23.145 3.97695 22.2528 3.15086 21.263 2.45398H5.73726C4.74749 3.15076 3.85528 3.9769 3.08594 4.9085Z" fill="#F0F0F0"/>
<path d="M0 13.5006C0 13.9144 0.0196699 14.3235 0.0561094 14.7278H26.9439C26.9803 14.3235 27 13.9144 27 13.5006C27 13.0867 26.9803 12.6776 26.9439 12.2733H0.0561094C0.0196699 12.6776 0 13.0867 0 13.5006Z" fill="#F0F0F0"/>
<path d="M1.47256 19.6365H25.5283C25.9258 18.8589 26.25 18.0377 26.4921 17.182H0.508789C0.750787 18.0377 1.0751 18.8589 1.47256 19.6365Z" fill="#F0F0F0"/>
<path d="M5.73726 24.5453H21.263C22.2527 23.8485 23.145 23.0224 23.9143 22.0908H3.08594C3.85528 23.0223 4.74749 23.8485 5.73726 24.5453Z" fill="#F0F0F0"/>
<path d="M0.508789 9.8189H26.4922C26.2501 8.96313 25.9259 8.14195 25.5284 7.36438H1.47262C1.07516 8.14195 0.75084 8.96313 0.508789 9.8189Z" fill="#F0F0F0"/>
<path d="M6.45605 2.45464H21.2624C19.0665 0.908577 16.3892 0.00012207 13.4995 0.00012207C11.7387 0.00012207 8.65191 0.908577 6.45605 2.45464Z" fill="#D80027"/>
<path d="M12.9131 7.36345H25.5279C25.079 6.48527 24.5367 5.66267 23.9142 4.90894H12.9131V7.36345Z" fill="#D80027"/>
<path d="M12.9131 12.2721H26.9439C26.868 11.4293 26.7154 10.6086 26.4917 9.81763H12.9131V12.2721Z" fill="#D80027"/>
<path d="M0.507914 17.1829H26.4912C26.7149 16.392 26.8675 15.5712 26.9434 14.7284H0.0556641C0.131602 15.5712 0.284215 16.3919 0.507914 17.1829Z" fill="#D80027"/>
<path d="M3.08535 22.0915H23.9137C24.5363 21.3376 25.0785 20.5151 25.5274 19.637H1.47168C1.92061 20.5151 2.46282 21.3377 3.08535 22.0915Z" fill="#D80027"/>
<path d="M13.4992 27.0005C16.3889 27.0005 19.0662 26.0921 21.2621 24.546H5.73633C7.93219 26.0921 10.6095 27.0005 13.4992 27.0005Z" fill="#D80027"/>
<path d="M0.508349 9.8177C0.28465 10.6087 0.13209 11.4294 0.0561523 12.2722H13.5V-0.000488281C7.32062 -0.000488281 2.11105 4.1514 0.508349 9.8177Z" fill="#0052B4"/>
<path d="M8.03645 3.52185L8.91052 6.2121H11.7395L9.45094 7.87492L10.325 10.5653L8.03645 8.90261L5.74783 10.5653L6.62206 7.87492L4.3335 6.2121H7.16233L8.03645 3.52185Z" fill="#F0F0F0"/>
</g>
<defs>
<clipPath id="clip0_162_2391">
<rect width="27" height="27" fill="white"/>
</clipPath>
</defs>
</svg>
